<svg id="Layer_2" data-name="Layer 2" xmlns="http://www.w3.org/2000/svg" viewBox="0 0 32.41 91.78"><defs><style>.cls-1{fill:#2e3192;}.cls-2{fill:#ffb060;}.cls-3{fill:#5c60df;}.cls-4{fill:#ffbd7a;}.cls-5{fill:#6f7090;}.cls-6{fill:#0b0c34;}</style></defs><title>Queueing Man</title><rect class="cls-1" y="25.9" width="32.41" height="33.72" rx="16.21" ry="16.21"/><path class="cls-2" d="M131.5,145.5l-6.41-3.5V124.67l6.35,4.33Z" transform="translate(-125.09 -83.88)"/><path class="cls-2" d="M151.09,145.5l6.41-3.5V124.67L151.15,129Z" transform="translate(-125.09 -83.88)"/><rect class="cls-2" x="12.25" y="17.18" width="8.33" height="12.6" rx="4.17" ry="4.17"/><path class="cls-3" d="M147.51,112.53a7,7,0,0,1-6,3.47c-2.45,0-5.34-1.28-6.31-3.73a4.68,4.68,0,0,1-.32-1.25h0a1.65,1.65,0,0,1,.32-1.26,1.74,1.74,0,0,1,2.17.1c.82.62.49,1.45,1.26,2.4a3.79,3.79,0,0,0,2.83,1.25,4.55,4.55,0,0,0,3.59-2.42c.41-1.16,1.27-1.78,1.91-1.61s.79.78.82.86A2.8,2.8,0,0,1,147.51,112.53Z" transform="translate(-125.09 -83.88)"/><ellipse class="cls-4" cx="16.42" cy="11.8" rx="10.09" ry="11.5"/><rect class="cls-1" x="6.35" y="45.12" width="19.65" height="14.5"/><path class="cls-5" d="M149.21,175.67H133.45l-2-32.17h19.65Q150.15,159.58,149.21,175.67Z" transform="translate(-125.09 -83.88)"/><polygon class="cls-6" points="16.18 61.62 14.98 91.78 17.37 91.78 16.18 61.62"/><path class="cls-5" d="M131.5,96.58c.14,1.86.68,3.69.92,3.67s.14-1.53.5-4a29.29,29.29,0,0,1,.58-3,24.13,24.13,0,0,0,12.25-4.5,9,9,0,0,0,1.58,3c1,1.22,1.59,1.34,2.3,2.24,1.83,2.29.92,5.49,1.2,5.51s1.34-3.2.76-7.06a8.74,8.74,0,0,0-7.92-8.27,10.58,10.58,0,0,0-8,1.25C130.89,88.64,131.4,95.28,131.5,96.58Z" transform="translate(-125.09 -83.88)"/></svg>