<svg id="Layer_1" data-name="Layer 1" xmlns="http://www.w3.org/2000/svg" xmlns:xlink="http://www.w3.org/1999/xlink" viewBox="0 0 79.5 61.55"><defs><style>.cls-1{fill:none;}.cls-2{fill:#ffb060;}.cls-3{clip-path:url(#clip-path);}.cls-4{fill:#6f7090;}.cls-5{fill:#2e3192;}.cls-6{fill:#bec4d3;}.cls-7{fill:#a0d3ff;}.cls-8{fill:#cdebff;}.cls-9{clip-path:url(#clip-path-2);}</style><clipPath id="clip-path" transform="translate(-87.61 -98.88)"><circle class="cls-1" cx="103.5" cy="105.57" r="6.52"/></clipPath><clipPath id="clip-path-2" transform="translate(-87.61 -98.88)"><circle class="cls-1" cx="151.22" cy="105.57" r="6.52"/></clipPath></defs><title>Reservation Table</title><circle class="cls-2" cx="15.89" cy="6.7" r="6.51"/><g class="cls-3"><path class="cls-4" d="M97.08,103.92a7.23,7.23,0,0,0,.11,3.24,21.28,21.28,0,0,0,7.52-3.49,22,22,0,0,0,2.17-1.84,6,6,0,0,1,1.2.84,8,8,0,0,1,.65.65,7.57,7.57,0,0,1,.63.74,5,5,0,0,1,.65,1.51,4.93,4.93,0,0,0-.39-2.65,6.41,6.41,0,0,0-2.29-2.84,7.12,7.12,0,0,0-4.75-1.16,6,6,0,0,0-3.2,1.08A6.26,6.26,0,0,0,97.08,103.92Z" transform="translate(-87.61 -98.88)"/></g><rect class="cls-5" x="7.87" y="14.95" width="13.02" height="25.75" rx="6.51" ry="6.51"/><rect class="cls-5" x="113.17" y="132.24" width="7.5" height="27.59" rx="3.75" ry="3.75" transform="translate(-98.74 -89.23) rotate(-4.51)"/><rect class="cls-5" x="11.39" y="33.2" width="20.26" height="7.69" rx="3.84" ry="3.84"/><rect class="cls-6" x="109.1" y="141.85" width="4.64" height="18.61" rx="2.32" ry="2.32" transform="translate(147.77 193.32) rotate(175.08)"/><rect class="cls-6" x="3.74" y="40.89" width="23.47" height="4.04" rx="1.96" ry="1.96"/><rect class="cls-2" x="20.89" y="20.63" width="15" height="6" rx="3" ry="3"/><rect class="cls-2" x="99.19" y="117.67" width="15" height="6" rx="3" ry="3" transform="translate(-38.92 -128.48) rotate(20.38)"/><path class="cls-6" d="M93.29,143.1h0A2.09,2.09,0,0,1,91,141.32l-3.32-24.25a2.09,2.09,0,0,1,1.78-2.34h0a2.08,2.08,0,0,1,2.35,1.78l3.32,24.24A2.1,2.1,0,0,1,93.29,143.1Z" transform="translate(-87.61 -98.88)"/><rect class="cls-6" x="93.76" y="141.85" width="4.64" height="18.61" rx="2.32" ry="2.32" transform="translate(-74.3 -106.56) rotate(4.92)"/><circle class="cls-2" cx="63.61" cy="6.7" r="6.51"/><rect class="cls-5" x="146.22" y="113.83" width="13.02" height="25.75" rx="6.51" ry="6.51" transform="translate(217.85 154.54) rotate(180)"/><rect class="cls-5" x="134.06" y="132.24" width="7.5" height="27.59" rx="3.75" ry="3.75" transform="translate(176.08 203.59) rotate(-175.49)"/><rect class="cls-5" x="135.46" y="132.08" width="20.26" height="7.69" rx="3.84" ry="3.84" transform="translate(203.57 172.98) rotate(-180)"/><rect class="cls-6" x="140.98" y="141.85" width="4.64" height="18.61" rx="2.32" ry="2.32" transform="translate(-74.13 -110.61) rotate(4.92)"/><rect class="cls-6" x="139.9" y="139.77" width="23.47" height="4.04" rx="1.96" ry="1.96" transform="translate(215.66 184.7) rotate(-180)"/><rect class="cls-2" x="131.22" y="119.51" width="15" height="6" rx="3" ry="3" transform="translate(189.84 146.15) rotate(-180)"/><rect class="cls-2" x="140.53" y="117.67" width="15" height="6" rx="3" ry="3" transform="translate(241.2 83.37) rotate(159.62)"/><path class="cls-6" d="M161.43,143.1h0a2.1,2.1,0,0,0,2.35-1.78l3.31-24.25a2.08,2.08,0,0,0-1.78-2.34h0a2.08,2.08,0,0,0-2.35,1.78l-3.31,24.24A2.08,2.08,0,0,0,161.43,143.1Z" transform="translate(-87.61 -98.88)"/><rect class="cls-6" x="156.32" y="141.85" width="4.64" height="18.61" rx="2.32" ry="2.32" transform="translate(242.05 189.27) rotate(175.08)"/><rect class="cls-7" x="23.95" y="26.02" width="32.18" height="18.02"/><rect class="cls-8" x="107.21" y="139.73" width="8.71" height="8.71" rx="1" ry="1" transform="translate(-156.82 22.21) rotate(-45)"/><path class="cls-8" d="M111.06,125.37l-5.29,18.48a.53.53,0,0,0,.51.68h10.57a.54.54,0,0,0,.52-.68l-5.29-18.48A.53.53,0,0,0,111.06,125.37Z" transform="translate(-87.61 -98.88)"/><rect class="cls-8" x="138.8" y="139.73" width="8.71" height="8.71" rx="1" ry="1" transform="translate(54.89 248.31) rotate(-135)"/><path class="cls-8" d="M143.67,125.37,149,143.85a.54.54,0,0,1-.51.68H137.87a.53.53,0,0,1-.51-.68l5.29-18.48A.53.53,0,0,1,143.67,125.37Z" transform="translate(-87.61 -98.88)"/><g class="cls-9"><path class="cls-4" d="M157.64,103.92c.1.46.88,4.2-1.23,5.58a3.71,3.71,0,0,1-2.69.38c1.46-1.89,1.5-2.93,1.23-3.53-.53-1.2-2.48-.88-4.93-2.68a20.19,20.19,0,0,1-2.17-1.84,6.13,6.13,0,0,0-1.21.84c-.25.22-.45.44-.65.65a9.28,9.28,0,0,0-.63.74,4.52,4.52,0,0,0-.64,1.51,4.87,4.87,0,0,1,.38-2.65,6.47,6.47,0,0,1,2.29-2.84,7.13,7.13,0,0,1,4.75-1.16,6,6,0,0,1,3.21,1.08A6.24,6.24,0,0,1,157.64,103.92Z" transform="translate(-87.61 -98.88)"/></g></svg>