<svg xmlns="http://www.w3.org/2000/svg" viewBox="0 0 9.88 27.97"><defs><style>.cls-1{fill:#2e3192;}.cls-2{fill:#ffb060;}.cls-3{fill:#5c60df;}.cls-4{fill:#ffbd7a;}.cls-5{fill:#6f7090;}.cls-6{fill:#0b0c34;}</style></defs><title>Queue_toggle button</title><g id="Layer_2" data-name="Layer 2"><g id="Layer_2-2" data-name="Layer 2"><rect class="cls-1" y="7.89" width="9.88" height="10.28" rx="4.94" ry="4.94"/><path class="cls-2" d="M2,18.78,0,17.71V12.43l1.94,1.32Z"/><path class="cls-2" d="M7.92,18.78l2-1.07V12.43L7.94,13.75Z"/><rect class="cls-2" x="3.73" y="5.24" width="2.54" height="3.84" rx="1.27" ry="1.27"/><path class="cls-3" d="M6.83,8.73A2.11,2.11,0,0,1,5,9.79,2.06,2.06,0,0,1,3.09,8.65,1.36,1.36,0,0,1,3,8.27H3a.5.5,0,0,1,.09-.38.52.52,0,0,1,.66,0c.26.19.16.44.39.73A1.14,1.14,0,0,0,5,9a1.42,1.42,0,0,0,1.1-.74c.12-.35.38-.54.58-.49s.24.24.25.26A.87.87,0,0,1,6.83,8.73Z"/><ellipse class="cls-4" cx="5" cy="3.6" rx="3.07" ry="3.5"/><rect class="cls-1" x="1.94" y="13.75" width="5.99" height="4.42"/><path class="cls-5" d="M7.35,28H2.55l-.61-9.8h6Z"/><polygon class="cls-6" points="4.93 18.78 4.57 27.97 5.29 27.97 4.93 18.78"/><path class="cls-5" d="M2,3.87A2.55,2.55,0,0,0,2.23,5a7.13,7.13,0,0,0,.16-1.22,8.75,8.75,0,0,1,.17-.92A7.5,7.5,0,0,0,5,2.22,7,7,0,0,0,6.3,1.48a2.55,2.55,0,0,0,.48.92c.3.37.48.41.7.68.56.7.28,1.67.37,1.68a3.58,3.58,0,0,0,.23-2.15A3,3,0,0,0,7.59,1.2,3,3,0,0,0,5.66.09,3.19,3.19,0,0,0,3.22.47C1.77,1.45,1.92,3.47,2,3.87Z"/></g></g></svg>