<svg xmlns="http://www.w3.org/2000/svg" viewBox="0 0 29.7 48.21"><defs><style>.cls-1{fill:#2e3192;}.cls-2{fill:#fff;}.cls-2,.cls-3{stroke:#fff;stroke-miterlimit:10;}.cls-3{fill:none;stroke-width:1.5px;}</style></defs><title>Queue_add new button</title><g id="Layer_2" data-name="Layer 2"><g id="Layer_2-2" data-name="Layer 2"><circle class="cls-1" cx="8.78" cy="5.83" r="5.83"/><rect class="cls-1" y="12.86" width="17.55" height="20.89" rx="8.78" ry="8.78"/><path class="cls-1" d="M4,48.21,2.08,30.33H15.47L13.64,48.21Z"/><path class="cls-1" d="M5.16,34.47,0,32.57V23.19l5.1,2.35C5.13,28.52,5.14,31.49,5.16,34.47Z"/><path class="cls-1" d="M17.55,23.19l-5.15,1.9v9.38l5.1-2.35Q17.53,27.67,17.55,23.19Z"/><rect class="cls-2" x="17.23" y="16.23" width="4.46" height="18.99" rx="0.53" ry="0.53" transform="translate(38.91 51.46) rotate(-180)"/><rect class="cls-1" x="17.23" y="16.22" width="4.46" height="18.99" rx="0.53" ry="0.53" transform="translate(-6.25 45.17) rotate(-90)"/><rect class="cls-3" x="17.23" y="16.22" width="4.46" height="18.99" rx="0.53" ry="0.53" transform="translate(-6.25 45.17) rotate(-90)"/><rect class="cls-1" x="18" y="16.96" width="2.93" height="17.55"/></g></g></svg>