<svg xmlns="http://www.w3.org/2000/svg" viewBox="0 0 36.78 60"><defs><style>.cls-1{fill:#2e3192;}.cls-2{fill:#fff;}.cls-2,.cls-3{stroke:#fff;stroke-miterlimit:10;}.cls-3{fill:none;stroke-width:1.5px;}</style></defs><title>12.9&amp;apos;&amp;apos;Queue_add new button_1</title><g id="Layer_2" data-name="Layer 2"><g id="Layer_2-2" data-name="Layer 2"><circle class="cls-1" cx="10.92" cy="7.25" r="7.25"/><rect class="cls-1" y="16" width="21.85" height="26" rx="10.92" ry="10.92"/><path class="cls-1" d="M5,60Q3.78,48.87,2.59,37.75H19.25Q18.13,48.88,17,60Z"/><path class="cls-1" d="M6.42,42.9,0,40.54V28.87l6.35,2.92Z"/><path class="cls-1" d="M21.85,28.87l-6.42,2.35V42.9L21.78,40C21.8,36.27,21.83,32.57,21.85,28.87Z"/><rect class="cls-2" x="21.44" y="20.2" width="5.55" height="23.63" rx="0.66" ry="0.66" transform="translate(48.43 64.04) rotate(-180)"/><rect class="cls-1" x="21.44" y="20.18" width="5.55" height="23.63" rx="0.66" ry="0.66" transform="translate(-7.78 56.21) rotate(-90)"/><rect class="cls-3" x="21.44" y="20.18" width="5.55" height="23.63" rx="0.66" ry="0.66" transform="translate(-7.78 56.21) rotate(-90)"/><rect class="cls-1" x="22.4" y="21.11" width="3.65" height="21.84"/></g></g></svg>