<svg xmlns="http://www.w3.org/2000/svg" xmlns:xlink="http://www.w3.org/1999/xlink" viewBox="0 0 38.85 30.08"><defs><style>.cls-1{fill:none;}.cls-2{fill:#ffb060;}.cls-3{clip-path:url(#clip-path);}.cls-4{fill:#6f7090;}.cls-5{fill:#2e3192;}.cls-6{fill:#bec4d3;}.cls-7{fill:#a0d3ff;}.cls-8{fill:#cdebff;}.cls-9{clip-path:url(#clip-path-2);}</style><clipPath id="clip-path"><circle class="cls-1" cx="7.76" cy="3.27" r="3.19"/></clipPath><clipPath id="clip-path-2"><circle class="cls-1" cx="31.09" cy="3.27" r="3.19"/></clipPath></defs><title>12.9&amp;apos;&amp;apos;Reservation_toggle button_1</title><g id="Layer_2" data-name="Layer 2"><g id="Layer_1-2" data-name="Layer 1"><circle class="cls-2" cx="7.76" cy="3.27" r="3.18"/><g class="cls-3"><path class="cls-4" d="M4.63,2.46a3.57,3.57,0,0,0,0,1.59A10.27,10.27,0,0,0,8.35,2.34a9,9,0,0,0,1.06-.9,3.29,3.29,0,0,1,.91.73,3.16,3.16,0,0,1,.31.36,2.74,2.74,0,0,1,.32.74A2.59,2.59,0,0,0,10.76,2,3.21,3.21,0,0,0,9.64.59,3.46,3.46,0,0,0,7.32,0,3,3,0,0,0,5.75.55,3,3,0,0,0,4.63,2.46Z"/></g><rect class="cls-5" x="3.85" y="7.31" width="6.36" height="12.58" rx="3.18" ry="3.18"/><rect class="cls-5" x="12.49" y="16.31" width="3.67" height="13.48" rx="1.83" ry="1.83" transform="translate(-1.77 1.2) rotate(-4.51)"/><rect class="cls-5" x="5.57" y="16.23" width="9.9" height="3.76" rx="1.88" ry="1.88"/><rect class="cls-6" x="10.5" y="21" width="2.27" height="9.09" rx="1.13" ry="1.13" transform="translate(25.42 50.01) rotate(175.08)"/><rect class="cls-6" x="1.83" y="19.98" width="11.47" height="1.97" rx="0.96" ry="0.96"/><rect class="cls-2" x="10.21" y="10.08" width="7.33" height="2.93" rx="1.47" ry="1.47"/><rect class="cls-2" x="5.66" y="9.18" width="7.33" height="2.93" rx="1.47" ry="1.47" transform="translate(4.29 -2.58) rotate(20.38)"/><path class="cls-6" d="M2.78,21.61h0a1,1,0,0,1-1.15-.87L0,8.89A1,1,0,0,1,.88,7.75h0A1,1,0,0,1,2,8.62L3.65,20.47A1,1,0,0,1,2.78,21.61Z"/><rect class="cls-6" x="3" y="21" width="2.27" height="9.09" rx="1.13" ry="1.13" transform="translate(2.21 -0.26) rotate(4.92)"/><circle class="cls-2" cx="31.09" cy="3.27" r="3.18"/><rect class="cls-5" x="28.65" y="7.31" width="6.36" height="12.58" rx="3.18" ry="3.18" transform="translate(63.65 27.2) rotate(180)"/><rect class="cls-5" x="22.7" y="16.31" width="3.67" height="13.48" rx="1.83" ry="1.83" transform="translate(47.17 47.96) rotate(-175.49)"/><rect class="cls-5" x="23.38" y="16.23" width="9.9" height="3.76" rx="1.88" ry="1.88" transform="translate(56.67 36.21) rotate(-180)"/><rect class="cls-6" x="26.08" y="21" width="2.27" height="9.09" rx="1.13" ry="1.13" transform="translate(2.29 -2.24) rotate(4.92)"/><rect class="cls-6" x="25.55" y="19.98" width="11.47" height="1.97" rx="0.96" ry="0.96" transform="translate(62.58 41.94) rotate(-180)"/><rect class="cls-2" x="21.31" y="10.08" width="7.33" height="2.93" rx="1.47" ry="1.47" transform="translate(49.96 23.1) rotate(-180)"/><rect class="cls-2" x="25.86" y="9.18" width="7.33" height="2.93" rx="1.47" ry="1.47" transform="translate(60.92 10.35) rotate(159.62)"/><path class="cls-6" d="M36.08,21.61h0a1,1,0,0,0,1.14-.87L38.84,8.89A1,1,0,0,0,38,7.75h0a1,1,0,0,0-1.14.87L35.21,20.47A1,1,0,0,0,36.08,21.61Z"/><rect class="cls-6" x="33.58" y="21" width="2.27" height="9.09" rx="1.13" ry="1.13" transform="translate(71.49 48.03) rotate(175.08)"/><rect class="cls-7" x="11.71" y="12.72" width="15.73" height="8.81"/><rect class="cls-8" x="9.58" y="19.96" width="4.26" height="4.26" rx="0.49" ry="0.49" transform="translate(-12.19 14.75) rotate(-45)"/><path class="cls-8" d="M11.46,13,8.87,22a.26.26,0,0,0,.25.33h5.17a.26.26,0,0,0,.25-.33L12,13A.26.26,0,0,0,11.46,13Z"/><rect class="cls-8" x="25.02" y="19.96" width="4.26" height="4.26" rx="0.49" ry="0.49" transform="translate(30.72 56.91) rotate(-135)"/><path class="cls-8" d="M27.4,13,30,22a.26.26,0,0,1-.25.33H24.56a.26.26,0,0,1-.25-.33l2.59-9A.26.26,0,0,1,27.4,13Z"/><g class="cls-9"><path class="cls-4" d="M34.23,2.46c0,.23.43,2.06-.61,2.73a1.75,1.75,0,0,1-1.31.18c.71-.92.73-1.42.6-1.72-.26-.58-1.21-.43-2.41-1.31a9,9,0,0,1-1.06-.9,3.59,3.59,0,0,0-.59.41c-.12.11-.22.22-.32.32a4.64,4.64,0,0,0-.31.36,2.51,2.51,0,0,0-.31.74A2.35,2.35,0,0,1,28.1,2,3.07,3.07,0,0,1,29.22.59,3.45,3.45,0,0,1,31.54,0a3,3,0,0,1,1.57.53A3.12,3.12,0,0,1,34.23,2.46Z"/></g></g></g></svg>