<svg xmlns="http://www.w3.org/2000/svg" viewBox="0 0 13.17 37.29"><defs><style>.cls-1{fill:#2e3192;}.cls-2{fill:#ffb060;}.cls-3{fill:#5c60df;}.cls-4{fill:#ffbd7a;}.cls-5{fill:#6f7090;}.cls-6{fill:#0b0c34;}</style></defs><title>12.9&amp;apos;&amp;apos;Queue_toggle button icon</title><g id="Layer_2" data-name="Layer 2"><g id="Layer_2-2" data-name="Layer 2"><rect class="cls-1" y="10.52" width="13.17" height="13.7" rx="6.58" ry="6.58"/><path class="cls-2" d="M2.61,25,0,23.61v-7l2.58,1.76Z"/><path class="cls-2" d="M10.56,25l2.61-1.42v-7l-2.58,1.76Z"/><rect class="cls-2" x="4.98" y="6.98" width="3.39" height="5.12" rx="1.69" ry="1.69"/><path class="cls-3" d="M9.11,11.64a2.83,2.83,0,0,1-2.42,1.41,2.75,2.75,0,0,1-2.57-1.52A2.55,2.55,0,0,1,4,11H4a.75.75,0,0,1,.13-.51.72.72,0,0,1,.89,0c.33.26.2.59.51,1A1.56,1.56,0,0,0,6.67,12a1.87,1.87,0,0,0,1.46-1c.16-.48.51-.73.77-.66s.32.31.34.35A1.18,1.18,0,0,1,9.11,11.64Z"/><ellipse class="cls-4" cx="6.67" cy="4.79" rx="4.1" ry="4.67"/><rect class="cls-1" x="2.58" y="18.33" width="7.98" height="5.89"/><path class="cls-5" d="M9.8,37.29H3.4Q3,30.75,2.58,24.22h8Q10.19,30.76,9.8,37.29Z"/><polygon class="cls-6" points="6.57 25.03 6.09 37.29 7.05 37.29 6.57 25.03"/><path class="cls-5" d="M2.61,5.16A3,3,0,0,0,3,6.65,9.89,9.89,0,0,0,3.18,5c.08-.52.17-.94.24-1.21A9.91,9.91,0,0,0,6.7,3,10.8,10.8,0,0,0,8.4,2,3.6,3.6,0,0,0,9,3.2c.4.49.64.54.93.9.75.94.37,2.23.49,2.25a4.65,4.65,0,0,0,.31-2.87,4,4,0,0,0-.65-1.87A3.92,3.92,0,0,0,7.55.12,4.26,4.26,0,0,0,4.3.62C2.36,1.93,2.57,4.63,2.61,5.16Z"/></g></g></svg>